<svg width="512" height="512" viewBox="0 0 512 512" xmlns="http://www.w3.org/2000/svg">
  <defs>
    <linearGradient id="bg" x1="0%" y1="0%" x2="100%" y2="100%">
      <stop offset="0%" style="stop-color:#e0e5ec;stop-opacity:1" />
      <stop offset="100%" style="stop-color:#d1d9e6;stop-opacity:1" />
    </linearGradient>
    <linearGradient id="capy" x1="0%" y1="0%" x2="100%" y2="100%">
      <stop offset="0%" style="stop-color:#8b5cf6;stop-opacity:1" />
      <stop offset="100%" style="stop-color:#7c3aed;stop-opacity:1" />
    </linearGradient>
  </defs>
  
  <!-- Background with neumorphic effect -->
  <rect width="512" height="512" rx="80" fill="url(#bg)"/>
  
  <!-- Neumorphic shadow effects -->
  <rect x="20" y="20" width="472" height="472" rx="60" fill="none" stroke="#bebebe" stroke-width="2" opacity="0.3"/>
  <rect x="30" y="30" width="452" height="452" rx="50" fill="none" stroke="#ffffff" stroke-width="1" opacity="0.5"/>
  
  <!-- Capybara head -->
  <ellipse cx="256" cy="200" rx="120" ry="80" fill="url(#capy)"/>
  
  <!-- Ears -->
  <ellipse cx="200" cy="150" rx="25" ry="35" fill="url(#capy)"/>
  <ellipse cx="312" cy="150" rx="25" ry="35" fill="url(#capy)"/>
  
  <!-- Eyes -->
  <circle cx="220" cy="180" r="12" fill="#ffffff"/>
  <circle cx="292" cy="180" r="12" fill="#ffffff"/>
  <circle cx="220" cy="180" r="6" fill="#2d3748"/>
  <circle cx="292" cy="180" r="6" fill="#2d3748"/>
  
  <!-- Nose -->
  <ellipse cx="256" cy="210" rx="8" ry="6" fill="#2d3748"/>
  
  <!-- Music note -->
  <g transform="translate(256, 320)">
    <circle cx="0" cy="-20" r="15" fill="url(#capy)"/>
    <rect x="-3" y="-5" width="6" height="40" fill="url(#capy)"/>
    <rect x="-3" y="35" width="20" height="6" fill="url(#capy)"/>
  </g>
  
  <!-- Text -->
  <text x="256" y="420" text-anchor="middle" font-family="Arial, sans-serif" font-size="24" font-weight="bold" fill="#4a5568">CAPY</text>
</svg>
